<svg xmlns="http://www.w3.org/2000/svg" viewBox="0 0 738.87 225.75"><defs><style>.cls-1{fill:#257ba0;}.cls-2{fill:#fff;}.cls-3{fill:#ef3c44;}</style></defs><title>EpicTeq-Business-Logo_v10</title><g id="Layer_3" data-name="Layer 3"><path class="cls-1" d="M129.74,54.43h15V72.11h.45a38.79,38.79,0,0,1,8.61-9.29,53.61,53.61,0,0,1,10.43-6.35,49.56,49.56,0,0,1,11.21-3.62,56.94,56.94,0,0,1,11-1.14,59.88,59.88,0,0,1,22.78,4.2,52.57,52.57,0,0,1,29.46,29.34,57.94,57.94,0,0,1,4.19,22.21,57.94,57.94,0,0,1-4.19,22.21A52.63,52.63,0,0,1,209.17,159a60.07,60.07,0,0,1-22.78,4.19,56.94,56.94,0,0,1-11-1.14,49.56,49.56,0,0,1-11.21-3.62,53.13,53.13,0,0,1-10.43-6.35,38.6,38.6,0,0,1-8.61-9.29h-.45v82.94h-15Zm96.76,53a47.54,47.54,0,0,0-2.83-16.54,39.86,39.86,0,0,0-8-13.37,37.79,37.79,0,0,0-12.58-9,40.47,40.47,0,0,0-16.66-3.29,42.86,42.86,0,0,0-17,3.29,41.8,41.8,0,0,0-13.37,9,40.36,40.36,0,0,0-8.84,13.37,44.74,44.74,0,0,0,0,33.08A40.25,40.25,0,0,0,156,137.37a41.83,41.83,0,0,0,13.37,9,42.86,42.86,0,0,0,17,3.28,40.47,40.47,0,0,0,16.66-3.28,37.82,37.82,0,0,0,12.58-9,39.76,39.76,0,0,0,8-13.37A47.5,47.5,0,0,0,226.5,107.46Z"/><path class="cls-2" d="M290,13.64a10,10,0,0,1-3.4,7.82,10.66,10.66,0,0,1-14.95,0,10,10,0,0,1-3.4-7.82,10,10,0,0,1,3.4-7.82,10.68,10.68,0,0,1,14.95,0A10,10,0,0,1,290,13.64Z"/><rect class="cls-1" x="271.6" y="54.43" width="14.96" height="106.06"/><path class="cls-1" d="M399.86,79.36a32,32,0,0,0-10.77-10,30.38,30.38,0,0,0-15.75-4.08,39.17,39.17,0,0,0-16.65,3,36.52,36.52,0,0,0-12.58,8.83,38.1,38.1,0,0,0-7.93,13.49,53.74,53.74,0,0,0,0,33.76,38,38,0,0,0,7.93,13.49,36.55,36.55,0,0,0,12.58,8.84,39.33,39.33,0,0,0,16.65,2.94,30.38,30.38,0,0,0,15.75-4.08,32,32,0,0,0,10.77-10l12.24,9.29a50.25,50.25,0,0,1-17.91,13.71,53.62,53.62,0,0,1-20.85,4.65,59.16,59.16,0,0,1-23.34-4,51.54,51.54,0,0,1-17.79-11.67A49.66,49.66,0,0,1,321,129.78a63.2,63.2,0,0,1-3.85-22.32A63.24,63.24,0,0,1,321,85.14a49.84,49.84,0,0,1,11.21-17.79A51.68,51.68,0,0,1,350,55.68a59.33,59.33,0,0,1,23.34-4,53.8,53.8,0,0,1,20.85,4.65A50.48,50.48,0,0,1,412.1,70.07Z"/><path class="cls-3" d="M486.65,68H456.06v62.55a33.82,33.82,0,0,0,1.13,9.63,13.66,13.66,0,0,0,3.17,5.78,11,11,0,0,0,4.88,2.83,22.94,22.94,0,0,0,6.23.79,29.42,29.42,0,0,0,7.93-1.13,37,37,0,0,0,7.48-2.95l.68,13.83q-8.38,3.84-20.17,3.85a37.48,37.48,0,0,1-8.95-1.14,21,21,0,0,1-8.5-4.3,23.68,23.68,0,0,1-6.35-8.61q-2.49-5.44-2.49-14.28V68H418.67V54.43H441.1V24.52h15V54.43h30.59Z"/><path class="cls-3" d="M517.47,111.54a45.28,45.28,0,0,0,3.85,15,39.12,39.12,0,0,0,20.39,20.17,36.73,36.73,0,0,0,14.73,2.94q12,0,20.74-5.55a41.6,41.6,0,0,0,13.26-12.81L602,140.77q-9.51,12-21,17.23a58.71,58.71,0,0,1-24.59,5.21A56.46,56.46,0,0,1,534.58,159a51.16,51.16,0,0,1-17.34-11.68,55,55,0,0,1-11.44-17.67,57.76,57.76,0,0,1-4.2-22.21,59.25,59.25,0,0,1,4.08-22.21A53.75,53.75,0,0,1,517,67.58a52,52,0,0,1,17-11.67,52.64,52.64,0,0,1,21.07-4.2A51.67,51.67,0,0,1,576.61,56a47.75,47.75,0,0,1,16,11.44,49.16,49.16,0,0,1,9.86,16.77,61.38,61.38,0,0,1,3.4,20.51v6.8ZM589.53,99.3q0-15.18-9.07-24.59t-25.38-9.4A36.39,36.39,0,0,0,541,68.14a39.63,39.63,0,0,0-11.89,7.59A38.17,38.17,0,0,0,521,86.61a28,28,0,0,0-3.06,12.69Z"/><path class="cls-3" d="M738.87,225.75h-15V142.81h-.45a38.8,38.8,0,0,1-8.61,9.29,53.42,53.42,0,0,1-10.43,6.35,49.48,49.48,0,0,1-11.22,3.62,56.78,56.78,0,0,1-11,1.14A60,60,0,0,1,659.44,159,52.63,52.63,0,0,1,630,129.67a57.75,57.75,0,0,1-4.19-22.21A57.75,57.75,0,0,1,630,85.25a52.57,52.57,0,0,1,29.46-29.34,59.79,59.79,0,0,1,22.77-4.2,56.78,56.78,0,0,1,11,1.14,49.48,49.48,0,0,1,11.22,3.62,53.91,53.91,0,0,1,10.43,6.35,39,39,0,0,1,8.61,9.29h.45V54.43h15ZM642.1,107.46A47.27,47.27,0,0,0,644.94,124a39.44,39.44,0,0,0,8,13.37,37.72,37.72,0,0,0,12.58,9,40.43,40.43,0,0,0,16.65,3.28,43.21,43.21,0,0,0,16.89-3.28,41.66,41.66,0,0,0,13.48-9A40.56,40.56,0,0,0,721.42,124a44.74,44.74,0,0,0,0-33.08,40.67,40.67,0,0,0-8.84-13.37,41.64,41.64,0,0,0-13.48-9,43.21,43.21,0,0,0-16.89-3.29,40.43,40.43,0,0,0-16.65,3.29,37.69,37.69,0,0,0-12.58,9,39.53,39.53,0,0,0-8,13.37A47.31,47.31,0,0,0,642.1,107.46Z"/><path class="cls-3" d="M683.21,109.52l-18,13a22.22,22.22,0,1,1,34.87,1.5Z"/><circle class="cls-1" cx="97.42" cy="4.83" r="3.25"/><circle class="cls-1" cx="96.17" cy="12.92" r="2"/><circle class="cls-1" cx="88.58" cy="4.5" r="3.75"/><circle class="cls-1" cx="90.17" cy="10.75" r="2.17"/><circle class="cls-1" cx="79.67" cy="5.42" r="3.83"/><circle class="cls-1" cx="84.67" cy="11.08" r="1.83"/><circle class="cls-1" cx="72.33" cy="3.08" r="2.33"/><circle class="cls-1" cx="72.92" cy="9.17" r="2.92"/><circle class="cls-1" cx="79.17" cy="12.25" r="1.5"/><circle class="cls-1" cx="65.83" cy="4.92" r="3.33"/><circle class="cls-1" cx="65.75" cy="11.5" r="2.25"/><circle class="cls-1" cx="53.92" cy="6.83" r="5.25"/><circle class="cls-1" cx="44.58" cy="2.42" r="2.42"/><circle class="cls-1" cx="45.75" cy="11.17" r="2.92"/><circle class="cls-1" cx="36.75" cy="4.67" r="3.92"/><circle class="cls-1" cx="33.33" cy="11.25" r="1.67"/><circle class="cls-1" cx="39.83" cy="11.25" r="1.67"/><circle class="cls-1" cx="27.33" cy="5.92" r="4.33"/><circle class="cls-1" cx="16.83" cy="6.5" r="2.67"/><circle class="cls-1" cx="8.5" cy="5.75" r="3.33"/><circle class="cls-1" cx="4.92" cy="11.5" r="2.25"/><circle class="cls-1" cx="12.67" cy="12.08" r="2.83"/><circle class="cls-1" cx="22.17" cy="11.58" r="2.5"/><circle class="cls-1" cx="60.83" cy="11.25" r="1.67"/><circle class="cls-1" cx="7.25" cy="21.83" r="4.58"/><circle class="cls-1" cx="14.04" cy="29.21" r="3.21"/><circle class="cls-1" cx="6.33" cy="32.25" r="3.67"/><circle class="cls-1" cx="11.83" cy="41.58" r="3.67"/><circle class="cls-1" cx="5.58" cy="44.5" r="2.92"/><circle class="cls-1" cx="4.5" cy="39.75" r="1.83"/><circle class="cls-1" cx="14.08" cy="34.5" r="1.42"/><circle class="cls-1" cx="10.6" cy="52.02" r="3.44"/><circle class="cls-1" cx="5.08" cy="55" r="1.75"/><circle class="cls-1" cx="3.71" cy="50.46" r="1.88"/><circle class="cls-1" cx="12.5" cy="61.42" r="4"/><circle class="cls-1" cx="9.08" cy="77.5" r="6.42"/><circle class="cls-1" cx="18.83" cy="72.42" r="3.33"/><circle class="cls-1" cx="3.42" cy="64.83" r="3.42"/><circle class="cls-1" cx="13.33" cy="67.58" r="1.5"/><circle class="cls-1" cx="29.42" cy="78.33" r="4.75"/><circle class="cls-1" cx="19.48" cy="80.85" r="2.23"/><circle class="cls-1" cx="38.92" cy="74.33" r="3.92"/><circle class="cls-1" cx="42.63" cy="79.96" r="1.96"/><circle class="cls-1" cx="49.38" cy="73.88" r="3.62"/><circle class="cls-1" cx="50.88" cy="82.04" r="3.04"/><circle class="cls-1" cx="55.71" cy="75.38" r="1.79"/><circle class="cls-1" cx="63.75" cy="71.79" r="2.08"/><circle class="cls-1" cx="65" cy="80.75" r="5"/><circle class="cls-1" cx="75.25" cy="74.33" r="3.92"/><circle class="cls-1" cx="76.17" cy="80.42" r="1.5"/><circle class="cls-1" cx="86.29" cy="75.21" r="2.79"/><circle class="cls-1" cx="82.25" cy="79.46" r="2.58"/><circle class="cls-1" cx="91.73" cy="81.52" r="1.56"/><circle class="cls-1" cx="93.15" cy="73.77" r="1.98"/><circle class="cls-1" cx="82.08" cy="71.67" r="1.42"/><circle class="cls-1" cx="12.29" cy="88.96" r="3.21"/><circle class="cls-1" cx="5.04" cy="88.96" r="3.21"/><circle class="cls-1" cx="5.46" cy="96.63" r="3.63"/><circle class="cls-1" cx="13.67" cy="97.42" r="2.83"/><circle class="cls-1" cx="6.67" cy="109.25" r="5.5"/><circle class="cls-1" cx="11.21" cy="116.63" r="2.13"/><circle class="cls-1" cx="3.65" cy="120.56" r="1.81"/><circle class="cls-1" cx="16.25" cy="110.67" r="2.08"/><circle class="cls-1" cx="16.09" cy="122.99" r="2.43"/><circle class="cls-1" cx="8.93" cy="123.74" r="1.68"/><circle class="cls-1" cx="6" cy="128.75" r="3.33"/><circle class="cls-1" cx="12.51" cy="132.33" r="3.58"/><circle class="cls-1" cx="9.04" cy="140.33" r="3.58"/><circle class="cls-1" cx="9.81" cy="149.35" r="4.23"/><circle class="cls-1" cx="21.17" cy="152.75" r="2.83"/><circle class="cls-1" cx="6.38" cy="157.53" r="2.96"/><circle class="cls-1" cx="14.5" cy="157.58" r="2"/><circle class="cls-1" cx="2.83" cy="145.58" r="1.67"/><circle class="cls-1" cx="19" cy="147.19" r="2.17"/><circle class="cls-1" cx="24.67" cy="159.25" r="1.67"/><circle class="cls-1" cx="30.25" cy="151.17" r="3.92"/><circle class="cls-1" cx="36.54" cy="155.15" r="2.38"/><circle class="cls-1" cx="29.92" cy="158.33" r="1.75"/><circle class="cls-1" cx="40.06" cy="147.35" r="2.56"/><circle class="cls-1" cx="51.92" cy="154.83" r="4.92"/><circle class="cls-1" cx="43.63" cy="155.4" r="2.13"/><circle class="cls-1" cx="48.31" cy="146.79" r="2.56"/><circle class="cls-1" cx="60.5" cy="149.79" r="3"/><circle class="cls-1" cx="73.58" cy="150" r="5.58"/><circle class="cls-1" cx="87.42" cy="152.67" r="2.75"/><circle class="cls-1" cx="66.46" cy="155.62" r="2.71"/><circle class="cls-1" cx="81.79" cy="156.7" r="2.13"/><circle class="cls-1" cx="84.27" cy="147.33" r="2.02"/><circle class="cls-1" cx="94.95" cy="150.47" r="3.22"/><circle class="cls-1" cx="91.73" cy="158.02" r="1.56"/><circle class="cls-1" cx="99.74" cy="156.01" r="2.32"/><circle class="cls-1" cx="101.75" cy="148.27" r="1.08"/><circle class="cls-1" cx="275" cy="10.13" r="2.63"/><circle class="cls-1" cx="282.1" cy="7.4" r="3.02"/><circle class="cls-1" cx="283.15" cy="17.04" r="3.4"/><circle class="cls-1" cx="275" cy="19.13" r="2.63"/><circle class="cls-1" cx="288.22" cy="10.88" r="1.94"/><circle class="cls-1" cx="270.81" cy="14.06" r="1.31"/><circle class="cls-1" cx="276.38" cy="5" r="1.38"/><circle class="cls-1" cx="287.71" cy="18.04" r="1.01"/><circle class="cls-1" cx="278.69" cy="13.69" r="1.06"/><circle class="cls-1" cx="278.85" cy="21.4" r="1.1"/><circle class="cls-1" cx="282.64" cy="22.04" r="1.06"/><circle class="cls-1" cx="274.69" cy="14.31" r="1.06"/><circle class="cls-1" cx="270.55" cy="9.08" r="1.05"/><circle class="cls-1" cx="273.69" cy="5.69" r="0.69"/><circle class="cls-1" cx="284.14" cy="11.64" r="0.99"/><circle class="cls-1" cx="288.22" cy="15.28" r="1.22"/><path class="cls-1" d="M270.81,17a.81.81,0,1,0-.81.81A.81.81,0,0,0,270.81,17Z"/><path class="cls-1" d="M271.13,18.56a.57.57,0,0,0-.57-.56.56.56,0,0,0-.56.56.57.57,0,0,0,.56.57A.58.58,0,0,0,271.13,18.56Z"/><circle class="cls-1" cx="271.78" cy="20.25" r="0.44"/><path class="cls-1" d="M276.38,22.59a.69.69,0,0,0-1.38,0,.69.69,0,1,0,1.38,0Z"/><circle class="cls-1" cx="278.05" cy="23.39" r="0.58"/><circle class="cls-1" cx="280.13" cy="23.1" r="0.67"/><circle class="cls-1" cx="280.88" cy="11.7" r="0.93"/><circle class="cls-1" cx="287" cy="7.95" r="0.71"/><circle class="cls-1" cx="286.18" cy="6.07" r="0.31"/><circle class="cls-1" cx="279.3" cy="3.65" r="0.45"/><circle class="cls-1" cx="281.21" cy="3.46" r="0.41"/><path class="cls-1" d="M284,4.11a.27.27,0,1,0-.27.27A.27.27,0,0,0,284,4.11Z"/><circle class="cls-1" cx="278.11" cy="7.02" r="0.64"/><circle class="cls-1" cx="279.1" cy="10.88" r="0.76"/><circle class="cls-1" cx="270.53" cy="11.56" r="0.53"/><circle class="cls-1" cx="272.4" cy="7.63" r="0.62"/><circle class="cls-1" cx="272.13" cy="6.03" r="0.34"/><circle class="cls-1" cx="278.3" cy="16.17" r="0.83"/><circle class="cls-1" cx="278.93" cy="18.66" r="0.46"/><circle class="cls-1" cx="286.52" cy="13.27" r="0.64"/><circle class="cls-1" cx="285.65" cy="9.6" r="0.52"/><circle class="cls-1" cx="285.15" cy="20.69" r="0.5"/><circle class="cls-1" cx="286.95" cy="19.76" r="0.44"/></g></svg>